# xmcd
#
# Track frame offsets: 
#        150
#        14067
#        26737
#        39890
#        52100
#        66167
#        78062
#        93242
#        105317
#        119265
#        132095
#        145280
#        156092
#        169752
#        182752
#        196007
#        211027
#        224780
#        237602
#        249310
#        262575
#        275497
#        290835
#        304697
#        317522
#
# Disc length: 4418 seconds
#
# Revision: 1
# Processed by: cddbd v1.5.2PL0 Copyright (c) Steve Scherf et al.
# Submitted via: ExactAudioCopyFreeDBPlugin 1.0
#
DISCID=60114019
DTITLE=Roosevelt Sykes - Complete Recorded Works, Vol. 5 (1937-1939)
DYEAR=1992
DGENRE=
TTITLE0=Little and Low
TTITLE1=Night Time Is the Right Time
TTITLE2=Monte Carlo Blues
TTITLE3=She Squeezed My Lemon
TTITLE4=Somebody's Been Ridin' My Black Gal
TTITLE5=Bread Pan
TTITLE6=Ice Cream Freezer
TTITLE7=Drunken Gambler
TTITLE8=Hospital, Heaven or Hell
TTITLE9=Love Lease Blues
TTITLE10=Hard Lead Pencil
TTITLE11=My Baby's Playground
TTITLE12=Night Gown Blues
TTITLE13=Sad Yas Yas Yas
TTITLE14=Let Me Hang My Stocking in Your Christmas Tree
TTITLE15=Mistake in Life
TTITLE16=Night Time Is the Right Time, No. 2
TTITLE17=The Dog in a Man
TTITLE18=She's Long Gone
TTITLE19=The Train Is Coming
TTITLE20=Down on My Knees
TTITLE21=Bitter Cup Blues
TTITLE22=Have You Seen Ida B
TTITLE23=Journey from the Germs
TTITLE24=You Can't Fix It Back
EXTD=Document DOCD-5120
EXTT0=
EXTT1=
EXTT2=
EXTT3=
EXTT4=
EXTT5=
EXTT6=
EXTT7=
EXTT8=
EXTT9=
EXTT10=
EXTT11=
EXTT12=
EXTT13=
EXTT14=
EXTT15=
EXTT16=
EXTT17=
EXTT18=
EXTT19=
EXTT20=
EXTT21=
EXTT22=
EXTT23=
EXTT24=
PLAYORDER=
